HIERARCHY
ROOT Hips
{
    OFFSET   0.000000   0.000000   0.000000
    CHANNELS 6 Xposition Yposition Zposition Zrotation Xrotation Yrotation
    JOINT Chest
    {
        OFFSET   0.000000   8.007240   0.000000
        CHANNELS 3 Zrotation Xrotation Yrotation
        JOINT Chest2
        {
            OFFSET   0.000000  22.077100   0.000000
            CHANNELS 3 Zrotation Xrotation Yrotation
            JOINT Neck
            {
                OFFSET   0.000000  23.254800   0.000000
                CHANNELS 3 Zrotation Xrotation Yrotation
                JOINT Head
                {
                    OFFSET   0.000000  14.370000   1.956600
                    CHANNELS 3 Zrotation Xrotation Yrotation
                    End Site
                    {
                        OFFSET   0.000000  19.566000   0.000000
                    }
                }
            }
            JOINT LeftCollar
            {
                OFFSET   3.911900  19.017000  -0.467064
                CHANNELS 3 Zrotation Xrotation Yrotation
                JOINT LeftShoulder
                {
                    OFFSET  10.383700   0.000000   0.000000
                    CHANNELS 3 Zrotation Xrotation Yrotation
                    JOINT LeftElbow
                    {
                        OFFSET  26.662100   0.001476   0.000517
                        CHANNELS 3 Zrotation Xrotation Yrotation
                        JOINT LeftWrist
                        {
                            OFFSET  28.869000  -0.000025  -0.000106
                            CHANNELS 3 Zrotation Xrotation Yrotation
                            JOINT LeftFinger0
                            {
                                OFFSET   2.044660  -2.323460   3.252850
                                CHANNELS 3 Zrotation Xrotation Yrotation
                                JOINT LeftFinger01
                                {
                                    OFFSET   3.088130   0.000000   0.000000
                                    CHANNELS 3 Zrotation Xrotation Yrotation
                                    JOINT LeftFinger02
                                    {
                                        OFFSET   2.639460   0.000000   0.000000
                                        CHANNELS 3 Zrotation Xrotation Yrotation
                                        End Site
                                        {
                                            OFFSET   2.582190   0.000000   0.000000
                                        }
                                    }
                                }
                            }
                            JOINT LeftFinger1
                            {
                                OFFSET   8.364480   0.000000   3.252850
                                CHANNELS 3 Zrotation Xrotation Yrotation
                                JOINT LeftFinger11
                                {
                                    OFFSET   4.646930   0.000000   0.000000
                                    CHANNELS 3 Zrotation Xrotation Yrotation
                                    JOINT LeftFinger12
                                    {
                                        OFFSET   2.323460   0.000000   0.000000
                                        CHANNELS 3 Zrotation Xrotation Yrotation
                                        End Site
                                        {
                                            OFFSET   2.273050   0.000000   0.000000
                                        }
                                    }
                                }
                            }
                            JOINT LeftFinger2
                            {
                                OFFSET   8.364490   0.000015   1.078090
                                CHANNELS 3 Zrotation Xrotation Yrotation
                                JOINT LeftFinger21
                                {
                                    OFFSET   5.111620   0.000000   0.000000
                                    CHANNELS 3 Zrotation Xrotation Yrotation
                                    JOINT LeftFinger22
                                    {
                                        OFFSET   2.788160   0.000016   0.000000
                                        CHANNELS 3 Zrotation Xrotation Yrotation
                                        End Site
                                        {
                                            OFFSET   2.727660   0.000000   0.000000
                                        }
                                    }
                                }
                            }
                            JOINT LeftFinger3
                            {
                                OFFSET   7.899780   0.000017  -1.078090
                                CHANNELS 3 Zrotation Xrotation Yrotation
                                JOINT LeftFinger31
                                {
                                    OFFSET   4.646930   0.000000   0.000000
                                    CHANNELS 3 Zrotation Xrotation Yrotation
                                    JOINT LeftFinger32
                                    {
                                        OFFSET   2.323470   0.000000   0.000000
                                        CHANNELS 3 Zrotation Xrotation Yrotation
                                        End Site
                                        {
                                            OFFSET   2.273050   0.000000   0.000000
                                        }
                                    }
                                }
                            }
                            JOINT LeftFinger4
                            {
                                OFFSET   7.435090   0.000000  -3.252850
                                CHANNELS 3 Zrotation Xrotation Yrotation
                                JOINT LeftFinger41
                                {
                                    OFFSET   3.717550   0.000000   0.000000
                                    CHANNELS 3 Zrotation Xrotation Yrotation
                                    JOINT LeftFinger42
                                    {
                                        OFFSET   1.858770   0.000000   0.000000
                                        CHANNELS 3 Zrotation Xrotation Yrotation
                                        End Site
                                        {
                                            OFFSET   1.818440   0.000000   0.000000
                                        }
                                    }
                                }
                            }
                        }
                    }
                }
            }
            JOINT RightCollar
            {
                OFFSET  -3.911900  19.017000  -0.467063
                CHANNELS 3 Zrotation Xrotation Yrotation
                JOINT RightShoulder
                {
                    OFFSET -10.383700   0.000019   0.000000
                    CHANNELS 3 Zrotation Xrotation Yrotation
                    JOINT RightElbow
                    {
                        OFFSET -26.662100   0.001175   0.000102
                        CHANNELS 3 Zrotation Xrotation Yrotation
                        JOINT RightWrist
                        {
                            OFFSET -28.869000   0.000016  -0.000079
                            CHANNELS 3 Zrotation Xrotation Yrotation
                            JOINT RightFinger0
                            {
                                OFFSET  -2.044660  -2.323490   3.252850
                                CHANNELS 3 Zrotation Xrotation Yrotation
                                JOINT RightFinger01
                                {
                                    OFFSET  -3.088140   0.000000   0.000000
                                    CHANNELS 3 Zrotation Xrotation Yrotation
                                    JOINT RightFinger02
                                    {
                                        OFFSET  -2.639460   0.000000   0.000000
                                        CHANNELS 3 Zrotation Xrotation Yrotation
                                        End Site
                                        {
                                            OFFSET  -2.582190   0.000000   0.000000
                                        }
                                    }
                                }
                            }
                            JOINT RightFinger1
                            {
                                OFFSET  -8.364480   0.000000   3.252850
                                CHANNELS 3 Zrotation Xrotation Yrotation
                                JOINT RightFinger11
                                {
                                    OFFSET  -4.646930   0.000000   0.000000
                                    CHANNELS 3 Zrotation Xrotation Yrotation
                                    JOINT RightFinger12
                                    {
                                        OFFSET  -2.323470   0.000000   0.000000
                                        CHANNELS 3 Zrotation Xrotation Yrotation
                                        End Site
                                        {
                                            OFFSET  -2.273050   0.000000   0.000000
                                        }
                                    }
                                }
                            }
                            JOINT RightFinger2
                            {
                                OFFSET  -8.364480   0.000000   1.078090
                                CHANNELS 3 Zrotation Xrotation Yrotation
                                JOINT RightFinger21
                                {
                                    OFFSET  -5.111620   0.000000   0.000000
                                    CHANNELS 3 Zrotation Xrotation Yrotation
                                    JOINT RightFinger22
                                    {
                                        OFFSET  -2.788160   0.000000   0.000000
                                        CHANNELS 3 Zrotation Xrotation Yrotation
                                        End Site
                                        {
                                            OFFSET  -2.727660   0.000000   0.000000
                                        }
                                    }
                                }
                            }
                            JOINT RightFinger3
                            {
                                OFFSET  -7.899780   0.000000  -1.078090
                                CHANNELS 3 Zrotation Xrotation Yrotation
                                JOINT RightFinger31
                                {
                                    OFFSET  -4.646930   0.000000   0.000000
                                    CHANNELS 3 Zrotation Xrotation Yrotation
                                    JOINT RightFinger32
                                    {
                                        OFFSET  -2.323470   0.000000   0.000000
                                        CHANNELS 3 Zrotation Xrotation Yrotation
                                        End Site
                                        {
                                            OFFSET  -2.273050   0.000000   0.000000
                                        }
                                    }
                                }
                            }
                            JOINT RightFinger4
                            {
                                OFFSET  -7.435090   0.000000  -3.252850
                                CHANNELS 3 Zrotation Xrotation Yrotation
                                JOINT RightFinger41
                                {
                                    OFFSET  -3.717550   0.000000   0.000000
                                    CHANNELS 3 Zrotation Xrotation Yrotation
                                    JOINT RightFinger42
                                    {
                                        OFFSET  -1.858770   0.000000   0.000000
                                        CHANNELS 3 Zrotation Xrotation Yrotation
                                        End Site
                                        {
                                            OFFSET  -1.818440   0.000000   0.000000
                                        }
                                    }
                                }
                            }
                        }
                    }
                }
            }
        }
    }
    JOINT LeftHip
    {
        OFFSET   9.783040   0.000000   0.000000
        CHANNELS 3 Zrotation Xrotation Yrotation
        JOINT LeftKnee
        {
            OFFSET   0.000032 -41.789100  -0.002222
            CHANNELS 3 Zrotation Xrotation Yrotation
            JOINT LeftAnkle
            {
                OFFSET   0.000087 -41.133200  -0.000135
                CHANNELS 3 Zrotation Xrotation Yrotation
                JOINT LeftToe
                {
                    OFFSET   0.000000  -6.358960  14.674500
                    CHANNELS 3 Zrotation Xrotation Yrotation
                    End Site
                    {
                        OFFSET   0.000000   0.000000   3.913200
                    }
                }
            }
        }
    }
    JOINT RightHip
    {
        OFFSET  -9.783040   0.000000   0.000000
        CHANNELS 3 Zrotation Xrotation Yrotation
        JOINT RightKnee
        {
            OFFSET   0.000047 -41.789100  -0.000896
            CHANNELS 3 Zrotation Xrotation Yrotation
            JOINT RightAnkle
            {
                OFFSET  -0.000117 -41.133300  -0.000248
                CHANNELS 3 Zrotation Xrotation Yrotation
                JOINT RightToe
                {
                    OFFSET   0.000000  -6.358970  14.674500
                    CHANNELS 3 Zrotation Xrotation Yrotation
                    End Site
                    {
                        OFFSET   0.000000   0.000000   3.913200
                    }
                }
            }
        }
    }
}
MOTION
Frames: 5
Frame Time:   0.016667
  2.722400  89.272200   1.759490  -3.708310 -19.350500   1.541670   2.957810  13.592300   2.363010   5.570690  27.282200   4.161680  -1.245570  -2.893330  -0.063040  -2.061340  -5.858390   3.510550 -11.386600  -4.417860   0.306790 -63.570700  32.072000 -18.937300  -3.931430  -8.574070 -10.220400   6.351070  -2.379010  12.313400  42.911500  30.791500 -65.375800 -22.276100   0.006520   0.002725  -6.138020   0.000339   0.006550 -32.635400   6.345050  -9.794800 -27.153900   0.002386   0.005267 -19.007700  -0.007773   0.000248 -28.494700   2.950630  -5.417580 -37.912000   0.002629  -0.000123 -25.249400   0.000703   0.006886 -28.595900   0.708141  -1.299210 -37.438700  -0.000334  -0.001790 -24.934100  -0.000601  -0.000759 -36.969400  -0.243732   0.323928 -55.455600  -0.001639   0.004170 -36.933400  -0.007532   0.004407   7.394160  -8.215090  17.992300  53.746600  15.378700  50.682000 -15.617600 -22.826100  66.229300  21.019400 -44.098200  45.875600 -81.331100  49.321100 111.214000 -21.831600  -0.001142  -0.001566 -15.000000   0.000269   0.005002  22.436400   9.771390  21.101400  19.978000   0.049350  -0.004365  13.815200   0.037369  -0.008080  14.239300   4.519030  15.871700  13.654700   0.034377   0.018840   9.052990   0.032228   0.000144  49.096000  -6.125240  -5.259670  54.267300   0.002003  -0.001027  39.490400   0.001655  -0.005742  64.958600  -9.079050  -4.216440  98.075500  -0.000137  -0.002452  65.228100  -0.004259   0.000944   2.531500  23.975600   3.461950   0.796766   0.105874   5.566950  -1.181590  -4.297200  -1.799460   0.000000   0.000000  -0.000000   2.525160  14.769300  -3.408990  -0.357007  12.231900  -4.266320  -2.805570  -6.669550  -4.496830   0.000000   0.000000   0.000000
  2.806090  89.267200   1.787650  -3.625760 -19.220900   1.792110   2.889420  13.506900   2.470390   5.394340  27.114000   4.407270  -1.293270  -3.126580  -0.070762  -2.142700  -6.330260   3.538210 -11.416600  -4.514270   0.308974 -63.780200  31.735600 -18.644300  -3.767940  -8.214020 -10.165800   6.597550  -2.540500  12.358400  42.524300  30.029600 -64.660100 -22.211500   0.006516   0.002713  -6.105730   0.000325   0.006659 -32.652800   6.421630  -9.900590 -27.170800   0.002096   0.001039 -19.019600  -0.008584   0.000000 -28.497800   3.020190  -5.543640 -38.049800   0.002660  -0.000123 -25.341200   0.000708   0.007580 -28.600800   0.777350  -1.425660 -37.533000  -0.000334  -0.001813 -24.996900  -0.000640  -0.000710 -37.014000  -0.255741   0.339287 -55.523200  -0.001639   0.004245 -36.978400  -0.007496   0.004485   7.043740  -8.138350  17.738800  53.294900  14.892400  52.465200 -15.199200 -23.175700  64.075800  22.257300 -43.749800  47.248000 -80.955600  49.416800 111.190000 -21.757400  -0.001806  -0.001243 -15.000000   0.000207   0.004814  17.836100   7.994370  22.880100  15.914100   0.006860  -0.003177  11.139900   0.005158  -0.002859  11.669700   3.549740  16.402400  12.177800  -0.001620  -0.002335   8.110380  -0.001062  -0.004051  47.803600  -6.095680  -5.482610  54.088700  -0.001883  -0.000186  39.242900   0.000627  -0.005636  64.920100  -9.074440  -4.221510  97.882900  -0.000094   0.000207  65.190000   0.000243   0.001032   2.480960  23.816300   3.451530   0.770453   0.145128   5.480450  -1.171770  -4.287620  -1.926490  -0.000000   0.000000   0.000000   2.481260  14.629700  -3.375230  -0.360006  12.347100  -4.513140  -2.781420  -6.721290  -4.504070  -0.000000   0.000000  -0.000000
  2.891980  89.264400   1.824420  -3.528300 -19.086000   2.112860   2.829510  13.413100   2.546690   5.250610  26.927700   4.585400  -1.335100  -3.332480  -0.077700  -2.214460  -6.746660   3.524810 -11.448500  -4.581740   0.283894 -64.022500  31.265200 -18.285100  -3.630800  -7.874190 -10.254300   6.861930  -2.917060  12.389200  42.266200  29.589000 -64.357700 -22.214700   0.006517   0.002720  -6.107320   0.000313   0.006773 -32.756900   6.475430  -9.942240 -27.256500   0.001800   0.001224 -19.079700  -0.009337  -0.000156 -28.511100   3.051180  -5.596600 -38.299400   0.002682  -0.000121 -25.507500   0.000704   0.007915 -28.616100   0.807871  -1.480300 -37.785500  -0.000336  -0.001812 -25.165100  -0.000683  -0.000652 -37.156600  -0.292588   0.385865 -55.737300  -0.001641   0.004321 -37.121000  -0.007462   0.004563   6.778010  -8.083820  17.492800  53.340000  14.151500  53.713500 -15.113200 -22.860200  62.619300  22.357700 -43.146800  47.519700 -81.021800  49.400200 111.194000 -21.774200  -0.002480  -0.001211 -15.000000   0.000109   0.004598  16.489200   7.430990  23.467100  14.756500   0.001126  -0.000881  10.329500   0.000887  -0.000199  10.796000   3.288390  16.682400  11.277900  -0.001871  -0.002232   7.511100  -0.001187  -0.004120  49.574600  -6.157320  -5.217440  54.133400  -0.001877  -0.000233  39.668900   0.000295  -0.005542  65.187600  -9.094810  -4.179590  98.280300  -0.000050   0.000799  65.454700   0.000965   0.001184   2.448220  23.666400   3.461610   0.735392   0.136268   5.375230  -1.168690  -4.249150  -2.117460  -0.000000   0.000000   0.000000   2.476840  14.528900  -3.370350  -0.373385  12.408900  -4.793830  -2.768530  -6.770410  -4.536330  -0.000000   0.000000   0.000000
  2.975440  89.261100   1.871970  -3.422900 -18.953300   2.478190   2.774570  13.314900   2.601870   5.123340  26.731700   4.717810  -1.372500  -3.516150  -0.084176  -2.278880  -7.117890   3.483460 -11.476300  -4.636060   0.258804 -64.251300  30.771800 -17.906800  -3.515170  -7.599220 -10.435000   7.056000  -3.327500  12.416000  42.134400  29.392300 -64.254700 -22.223500   0.006517   0.002727  -6.111720   0.000300   0.006888 -32.867100   6.514430  -9.959280 -27.356200   0.001510   0.002522 -19.149400  -0.010019  -0.000214 -28.522000   3.057840  -5.605920 -38.520400   0.002765  -0.000119 -25.654600   0.000693   0.008899 -28.633200   0.815386  -1.493090 -38.056300  -0.000338  -0.001805 -25.345500  -0.000731  -0.000585 -37.319300  -0.334167   0.438161 -55.981200  -0.001642   0.004399 -37.283500  -0.007427   0.004641   6.553610  -8.046250  17.277900  53.597700  13.347300  54.628100 -15.213600 -22.402700  61.600100  21.949000 -42.645100  47.269800 -81.125600  49.373900 111.201000 -21.791000  -0.003165  -0.001207 -15.000000   0.000000   0.004359  16.305500   7.333170  23.550000  14.591100   0.000127   0.000405  10.213700   0.000089   0.000256  10.559800   3.219500  16.758600  11.034400  -0.001907  -0.002059   7.348890  -0.001204  -0.004138  51.346200  -6.218870  -4.952210  54.197100  -0.001871  -0.000316  40.094900   0.000197  -0.005445  65.455200  -9.115180  -4.137660  98.677700   0.000000   0.000981  65.719300   0.001192   0.001327   2.437130  23.525800   3.471950   0.684940   0.122939   5.257800  -1.170710  -4.201990  -2.345820   0.000000   0.000000  -0.000000   2.489290  14.452800  -3.365860  -0.393911  12.446300  -5.093820  -2.759100  -6.823600  -4.605970   0.000000   0.000000   0.000000
  3.047120  89.254600   1.934980  -3.320280 -18.832100   2.855610   2.725240  13.216000   2.642030   5.012120  26.533700   4.817010  -1.411520  -3.679280  -0.090582  -2.345990  -7.447150   3.417980 -11.492000  -4.695480   0.259389 -64.385000  30.414300 -17.582000  -3.447100  -7.519890 -10.649100   7.055360  -3.585850  12.440100  42.361800  29.856600 -64.736200 -22.242800   0.006513   0.002721  -6.121390   0.000285   0.006996 -32.907100   6.538110  -9.976610 -27.391400   0.001233   0.008763 -19.174000  -0.010731  -0.000211 -28.528500   3.024480  -5.544080 -38.583700   0.009977  -0.000119 -25.696700   0.000671   0.014934 -28.644000   0.815241  -1.492340 -38.233200  -0.000337  -0.001771 -25.463400  -0.000786  -0.000506 -37.429600  -0.362571   0.473691 -56.146800  -0.001641   0.004479 -37.393800  -0.007388   0.004717   6.347720  -8.031440  17.136800  53.535200  12.779300  55.413400 -15.522300 -22.067400  60.612500  21.335300 -42.566400  46.883500 -81.210100  49.351400 111.207000 -21.766900  -0.003865  -0.001405 -15.000000  -0.000088   0.004105  16.465300   7.382100  23.480800  14.727000  -0.000201   0.000490  10.308900  -0.000247   0.000387  10.235400   3.135510  16.865400  10.700500  -0.001890  -0.001916   7.126500  -0.001185  -0.004158  51.046200  -6.207340  -4.997310  54.220200  -0.001875  -0.000397  40.032700   0.000043  -0.005346  64.828300  -9.067680  -4.235620  97.746600   0.000067   0.001295  65.099200   0.001602   0.001483   2.466220  23.408400   3.460480   0.603630   0.113976   5.143270  -1.176640  -4.169220  -2.584350  -0.000000   0.000000   0.000000   2.535750  14.391900  -3.334740  -0.429824  12.485700  -5.392490  -2.741830  -6.892790  -4.720200   0.000000   0.000000   0.000000
